<svg width="1440" height="790" viewBox="0 0 1440 790" fill="none" xmlns="http://www.w3.org/2000/svg">
<g filter="url(#filter0_i_386_47917)">
<g clip-path="url(#clip0_386_47917)">
<path d="M1408 0C1425.67 0 1440 14.3269 1440 32V758C1440 775.673 1425.67 790 1408 790H32C14.3269 790 1.16779e-07 775.673 0 758V115C0 97.3269 14.3269 83 32 83H264C281.673 83 296 68.6731 296 51V32C296 14.3269 310.327 0 328 0H1408Z" fill="#F8FAFC"/>
<g filter="url(#filter1_f_386_47917)">
<ellipse cx="938" cy="930" rx="271" ry="199" fill="#FFB97E"/>
</g>
<g filter="url(#filter2_f_386_47917)">
<ellipse cx="1098.5" cy="480" rx="570.5" ry="472" fill="url(#paint0_linear_386_47917)" fill-opacity="0.65"/>
</g>
<path d="M1262.07 -13.0381C1275.79 -22.8205 1294.21 -22.8205 1307.93 -13.0381L1920.72 423.836C1934.82 433.893 1940.73 451.969 1935.28 468.416L1701.53 1174.36C1696.18 1190.52 1681.06 1201.44 1664.03 1201.44H905.968C888.937 1201.44 873.823 1190.52 868.47 1174.36L634.718 468.416C629.272 451.969 635.179 433.893 649.285 423.836L1262.07 -13.0381Z" fill="url(#paint1_linear_386_47917)" fill-opacity="0.4" stroke="url(#paint2_linear_386_47917)"/>
<path d="M1084.08 -240.051C1097.8 -249.827 1116.2 -249.827 1129.92 -240.051L1776.94 221.02C1791.05 231.077 1796.96 249.159 1791.51 265.609L1544.69 1010.68C1539.34 1026.84 1524.23 1037.76 1507.2 1037.76H706.804C689.775 1037.76 674.663 1026.84 669.308 1010.68L422.487 265.609C417.037 249.159 422.947 231.077 437.06 221.02L1084.08 -240.051Z" fill="url(#paint3_linear_386_47917)" stroke="url(#paint4_linear_386_47917)"/>
<rect x="816.501" y="-26.5001" width="31" height="31" rx="7.5" transform="rotate(90 816.501 -26.5001)" stroke="#314158" stroke-opacity="0.08"/>
<rect x="814.001" y="-24.0001" width="26" height="26" rx="6" transform="rotate(90 814.001 -24.0001)" fill="#314158" fill-opacity="0.08"/>
<rect x="672.501" y="-26.5001" width="31" height="31" rx="7.5" transform="rotate(90 672.501 -26.5001)" stroke="#314158" stroke-opacity="0.08"/>
<rect x="670.001" y="-24.0001" width="26" height="26" rx="6" transform="rotate(90 670.001 -24.0001)" fill="#314158" fill-opacity="0.08"/>
<rect x="708.501" y="45.4999" width="31" height="31" rx="7.5" transform="rotate(90 708.501 45.4999)" stroke="#314158" stroke-opacity="0.08"/>
<rect x="706.001" y="47.9999" width="26" height="26" rx="6" transform="rotate(90 706.001 47.9999)" fill="#314158" fill-opacity="0.08"/>
<rect x="816.501" y="9.49992" width="31" height="31" rx="7.5" transform="rotate(90 816.501 9.49992)" stroke="#314158" stroke-opacity="0.08"/>
<rect x="814.001" y="11.9999" width="26" height="26" rx="6" transform="rotate(90 814.001 11.9999)" fill="#314158" fill-opacity="0.08"/>
<rect x="780.501" y="9.5017" width="31" height="31" rx="7.5" transform="rotate(90 780.501 9.5017)" stroke="#314158" stroke-opacity="0.08"/>
<rect x="852.497" y="45.5017" width="31" height="31" rx="7.5" transform="rotate(90 852.497 45.5017)" stroke="#314158" stroke-opacity="0.08"/>
<rect x="888.497" y="45.5019" width="31" height="31" rx="7.5" transform="rotate(90 888.497 45.5019)" stroke="#314158" stroke-opacity="0.08"/>
<rect x="816.501" y="81.4999" width="31" height="31" rx="7.5" transform="rotate(90 816.501 81.4999)" stroke="#314158" stroke-opacity="0.08"/>
<rect x="816.501" y="153.502" width="31" height="31" rx="7.5" transform="rotate(90 816.501 153.502)" stroke="#314158" stroke-opacity="0.08"/>
<rect x="852.501" y="-26.5001" width="31" height="31" rx="7.5" transform="rotate(90 852.501 -26.5001)" stroke="#314158" stroke-opacity="0.08"/>
<rect x="780.501" y="81.4999" width="31" height="31" rx="7.5" transform="rotate(90 780.501 81.4999)" stroke="#314158" stroke-opacity="0.08"/>
<rect x="778.001" y="83.9999" width="26" height="26" rx="6" transform="rotate(90 778.001 83.9999)" fill="#314158" fill-opacity="0.08"/>
<rect x="780.501" y="117.5" width="31" height="31" rx="7.5" transform="rotate(90 780.501 117.5)" stroke="#314158" stroke-opacity="0.08"/>
<rect x="744.501" y="117.5" width="31" height="31" rx="7.5" transform="rotate(90 744.501 117.5)" stroke="#314158" stroke-opacity="0.08"/>
<rect x="708.501" y="9.49992" width="31" height="31" rx="7.5" transform="rotate(90 708.501 9.49992)" stroke="#314158" stroke-opacity="0.08"/>
<rect x="672.501" y="153.5" width="31" height="31" rx="7.5" transform="rotate(90 672.501 153.5)" stroke="#314158" stroke-opacity="0.08"/>
<rect x="670.001" y="156" width="26" height="26" rx="6" transform="rotate(90 670.001 156)" fill="#314158" fill-opacity="0.08"/>
<rect x="-19.4994" y="749.496" width="31" height="31" rx="7.5" stroke="#314158" stroke-opacity="0.08"/>
<rect x="-16.9994" y="751.996" width="26" height="26" rx="6" fill="#314158" fill-opacity="0.08"/>
<rect x="16.5006" y="749.496" width="31" height="31" rx="7.5" stroke="#314158" stroke-opacity="0.08"/>
<rect x="19.0006" y="751.996" width="26" height="26" rx="6" fill="#314158" fill-opacity="0.08"/>
<rect x="16.5023" y="785.496" width="31" height="31" rx="7.5" stroke="#314158" stroke-opacity="0.08"/>
<rect x="52.5023" y="713.5" width="31" height="31" rx="7.5" stroke="#314158" stroke-opacity="0.08"/>
<rect x="52.5026" y="677.5" width="31" height="31" rx="7.5" stroke="#314158" stroke-opacity="0.08"/>
<rect x="88.5006" y="749.496" width="31" height="31" rx="7.5" stroke="#314158" stroke-opacity="0.08"/>
<rect x="160.503" y="749.496" width="31" height="31" rx="7.5" stroke="#314158" stroke-opacity="0.08"/>
<rect x="-19.4994" y="713.496" width="31" height="31" rx="7.5" stroke="#314158" stroke-opacity="0.08"/>
<rect x="88.5006" y="785.496" width="31" height="31" rx="7.5" stroke="#314158" stroke-opacity="0.08"/>
<rect x="91.0006" y="787.996" width="26" height="26" rx="6" fill="#314158" fill-opacity="0.08"/>
<rect x="124.501" y="785.496" width="31" height="31" rx="7.5" stroke="#314158" stroke-opacity="0.08"/>
<rect x="1368.51" y="767.5" width="31" height="31" rx="7.5" transform="rotate(90 1368.51 767.5)" stroke="#314158" stroke-opacity="0.08"/>
<rect x="1366.01" y="770" width="26" height="26" rx="6" transform="rotate(90 1366.01 770)" fill="#314158" fill-opacity="0.08"/>
<rect x="1224.51" y="767.5" width="31" height="31" rx="7.5" transform="rotate(90 1224.51 767.5)" stroke="#314158" stroke-opacity="0.08"/>
<rect x="1222.01" y="770" width="26" height="26" rx="6" transform="rotate(90 1222.01 770)" fill="#314158" fill-opacity="0.08"/>
<rect x="1296.51" y="731.5" width="31" height="31" rx="7.5" transform="rotate(90 1296.51 731.5)" stroke="#314158" stroke-opacity="0.08"/>
<rect x="1294.01" y="734" width="26" height="26" rx="6" transform="rotate(90 1294.01 734)" fill="#314158" fill-opacity="0.08"/>
<rect x="1404.51" y="767.5" width="31" height="31" rx="7.5" transform="rotate(90 1404.51 767.5)" stroke="#314158" stroke-opacity="0.08"/>
<rect x="1330.5" y="382.5" width="31" height="31" rx="7.5" stroke="#314158" stroke-opacity="0.08"/>
<rect x="1367.5" y="417.5" width="31" height="31" rx="7.5" stroke="#314158" stroke-opacity="0.08"/>
<rect x="1439.5" y="417.5" width="31" height="31" rx="7.5" stroke="#314158" stroke-opacity="0.08"/>
<rect x="1403.5" y="453.5" width="31" height="31" rx="7.5" stroke="#314158" stroke-opacity="0.08"/>
<rect x="1406" y="456" width="26" height="26" rx="6" fill="#314158" fill-opacity="0.08"/>
<rect x="1331.5" y="428.5" width="31" height="31" rx="7.5" stroke="#314158" stroke-opacity="0.08"/>
<rect x="1334" y="431" width="26" height="26" rx="6" fill="#314158" fill-opacity="0.08"/>
<rect x="1383.5" y="483.5" width="31" height="31" rx="7.5" stroke="#314158" stroke-opacity="0.08"/>
<rect x="1439.5" y="489.5" width="31" height="31" rx="7.5" stroke="#314158" stroke-opacity="0.08"/>
<path d="M98.425 56V35.5483H106.021C107.21 35.5483 108.222 35.7528 109.06 36.1618C109.897 36.5514 110.53 37.1065 110.959 37.8272C111.407 38.5478 111.631 39.4049 111.631 40.3982C111.631 41.2942 111.426 42.1025 111.017 42.8232C110.608 43.5439 110.063 44.1282 109.381 44.5762C108.719 45.0242 107.969 45.2677 107.132 45.3067L105.116 44.4594H106.109C108.291 44.4594 109.897 44.9561 110.93 45.9494C111.962 46.9233 112.478 48.316 112.478 50.1274C112.478 51.2766 112.235 52.2895 111.748 53.166C111.28 54.0425 110.579 54.7339 109.644 55.2404C108.709 55.7468 107.55 56 106.167 56H98.425ZM101.055 53.8672H105.642C106.947 53.8672 107.979 53.5458 108.739 52.903C109.498 52.2603 109.878 51.2571 109.878 49.8937C109.878 48.4718 109.498 47.4784 108.739 46.9136C107.979 46.3292 106.947 46.0371 105.642 46.0371H101.055V53.8672ZM101.055 43.9335H105.554C106.567 43.9335 107.395 43.69 108.037 43.203C108.68 42.6966 109.001 41.8493 109.001 40.6612C109.001 39.473 108.68 38.6842 108.037 38.2946C107.395 37.8856 106.567 37.6811 105.554 37.6811H101.055V43.9335ZM115.592 56V39.9308H118.104V56H115.592ZM118.104 46.4169L117.841 43.6997C117.939 42.3752 118.299 41.4111 118.922 40.8073C119.565 40.184 120.529 39.8723 121.815 39.8723H123.217V42.2973H121.727C120.364 42.2973 119.419 42.5992 118.893 43.203C118.367 43.8069 118.104 44.8781 118.104 46.4169ZM134.174 56V44.7808C134.174 43.69 133.863 42.9011 133.24 42.4142C132.636 41.9272 131.866 41.6838 130.931 41.6838C129.88 41.6838 128.984 41.9272 128.243 42.4142C127.503 42.8817 126.968 43.5536 126.637 44.4302L124.621 43.1154C125.244 41.8883 126.101 40.9826 127.192 40.3982C128.302 39.7944 129.578 39.4925 131.019 39.4925C132.09 39.4925 133.054 39.6678 133.912 40.0184C134.788 40.369 135.479 40.9436 135.986 41.7422C136.492 42.5408 136.746 43.6218 136.746 44.9853V56H134.174ZM129.324 56.3214C127.747 56.3214 126.529 55.8929 125.672 55.0358C124.835 54.1593 124.416 53.0686 124.416 51.7636C124.416 50.3027 124.913 49.1438 125.906 48.2868C126.899 47.4297 128.37 46.8454 130.318 46.5338L134.554 45.9202V47.9654L130.376 48.6082C129.247 48.8419 128.39 49.1828 127.805 49.6307C127.24 50.0787 126.958 50.7312 126.958 51.5883C126.958 52.5037 127.24 53.166 127.805 53.575C128.37 53.984 129.062 54.1886 129.88 54.1886C131.224 54.1886 132.275 53.7406 133.035 52.8446C133.795 51.9291 134.174 50.6339 134.174 48.9588L134.584 51.4422C134.545 52.9615 134.077 54.1593 133.181 55.0358C132.305 55.8929 131.019 56.3214 129.324 56.3214ZM151.454 56V46.5338C151.454 43.3199 150.159 41.713 147.569 41.713C146.166 41.713 145.066 42.1805 144.267 43.1154C143.488 44.0503 143.098 45.4333 143.098 47.2642L142.835 44.0796C142.913 42.6187 143.449 41.4987 144.442 40.7196C145.436 39.921 146.692 39.5217 148.211 39.5217C150.237 39.5217 151.698 40.1061 152.594 41.2747C153.509 42.4434 153.967 44.0503 153.967 46.0955V56H151.454ZM140.586 56V39.9308H143.098V56H140.586ZM163.604 56.4383C162.377 56.4383 161.247 56.1266 160.215 55.5033C159.202 54.88 158.384 53.9451 157.761 52.6985C157.137 51.4324 156.826 49.8547 156.826 47.9654C156.826 46.0566 157.137 44.4788 157.761 43.2323C158.384 41.9857 159.202 41.0507 160.215 40.4275C161.247 39.8042 162.377 39.4925 163.604 39.4925C164.519 39.4925 165.376 39.7068 166.175 40.1353C166.993 40.5443 167.665 41.1287 168.191 41.8883C168.717 42.6479 169.029 43.5536 169.126 44.6055L170.587 47.9654L169.126 51.3253C169.029 52.3576 168.717 53.2634 168.191 54.0425C167.665 54.8021 167.003 55.3962 166.204 55.8247C165.406 56.2337 164.539 56.4383 163.604 56.4383ZM164.159 54.247C165.152 54.247 165.98 53.9743 166.643 53.4289C167.305 52.8641 167.801 52.1142 168.133 51.1792C168.464 50.2248 168.629 49.1535 168.629 47.9654C168.629 46.7772 168.464 45.7157 168.133 44.7808C167.801 43.8263 167.305 43.0764 166.643 42.5311C165.98 41.9662 165.152 41.6838 164.159 41.6838C162.62 41.6838 161.432 42.2389 160.595 43.3491C159.757 44.4399 159.338 45.9786 159.338 47.9654C159.338 49.9521 159.757 51.5006 160.595 52.6109C161.432 53.7016 162.62 54.247 164.159 54.247ZM168.629 56V51.1792V44.7808V33.7952H171.142V56H168.629ZM180.341 56.4383C178.608 56.4383 177.186 56.0779 176.076 55.3572C174.965 54.6171 174.245 53.4776 173.914 51.9389L176.222 51.2961C176.397 52.3869 176.865 53.1757 177.624 53.6627C178.403 54.1496 179.328 54.3931 180.4 54.3931C181.393 54.3931 182.192 54.1593 182.796 53.6919C183.399 53.2244 183.701 52.6498 183.701 51.9681C183.701 51.1111 183.38 50.4488 182.737 49.9813C182.094 49.5139 180.984 49.1048 179.406 48.7542C177.731 48.4036 176.494 47.8096 175.696 46.972C174.917 46.1345 174.527 45.1314 174.527 43.9627C174.527 43.0862 174.761 42.3168 175.228 41.6546C175.696 40.9728 176.339 40.4469 177.157 40.0769C177.994 39.6873 178.958 39.4925 180.049 39.4925C181.705 39.4925 183.02 39.8236 183.993 40.4859C184.987 41.1481 185.659 42.2486 186.009 43.7874L183.73 44.5178C183.497 43.3491 183.039 42.5603 182.357 42.1512C181.695 41.7422 180.926 41.5377 180.049 41.5377C179.192 41.5377 178.481 41.7325 177.916 42.122C177.371 42.4921 177.098 43.0083 177.098 43.6705C177.098 44.3912 177.361 44.9853 177.887 45.4527C178.413 45.9202 179.377 46.3098 180.78 46.6214C182.591 47.0304 183.954 47.6245 184.87 48.4036C185.805 49.1633 186.272 50.1956 186.272 51.5006C186.272 53.0199 185.727 54.2275 184.636 55.1235C183.545 56 182.114 56.4383 180.341 56.4383ZM200.044 56V46.5338C200.044 43.3199 198.749 41.713 196.159 41.713C194.756 41.713 193.656 42.1805 192.857 43.1154C192.078 44.0503 191.688 45.4333 191.688 47.2642L191.425 44.0796C191.503 42.6187 192.039 41.4987 193.032 40.7196C194.026 39.921 195.282 39.5217 196.801 39.5217C198.827 39.5217 200.288 40.1061 201.184 41.2747C202.099 42.4434 202.557 44.0503 202.557 46.0955V56H200.044ZM189.176 56V33.7952H191.688V56H189.176ZM206.381 56V39.9308H208.893V56H206.381ZM207.608 37.0091C207.101 37.0091 206.692 36.8533 206.381 36.5416C206.069 36.23 205.913 35.8599 205.913 35.4314C205.913 34.9639 206.069 34.5744 206.381 34.2627C206.692 33.9511 207.101 33.7952 207.608 33.7952C208.134 33.7952 208.552 33.9608 208.864 34.2919C209.176 34.6036 209.331 34.9834 209.331 35.4314C209.331 35.8599 209.176 36.23 208.864 36.5416C208.552 36.8533 208.134 37.0091 207.608 37.0091ZM220.367 56.4383C219.432 56.4383 218.556 56.2337 217.738 55.8247C216.939 55.4157 216.277 54.8313 215.751 54.0717C215.245 53.2926 214.933 52.3771 214.816 51.3253L213.355 47.9654L214.816 44.6055C214.933 43.5342 215.245 42.6285 215.751 41.8883C216.277 41.1287 216.939 40.5443 217.738 40.1353C218.556 39.7068 219.432 39.4925 220.367 39.4925C221.595 39.4925 222.714 39.8042 223.727 40.4275C224.74 41.0507 225.558 41.9857 226.182 43.2323C226.805 44.4788 227.116 46.0566 227.116 47.9654C227.116 49.8547 226.805 51.4324 226.182 52.6985C225.558 53.9451 224.74 54.88 223.727 55.5033C222.714 56.1266 221.595 56.4383 220.367 56.4383ZM212.8 62.2816V39.9308H215.284V44.7515V51.15V62.2816H212.8ZM219.783 54.247C221.322 54.247 222.51 53.7016 223.348 52.6109C224.185 51.5006 224.604 49.9521 224.604 47.9654C224.604 45.9786 224.185 44.4399 223.348 43.3491C222.529 42.2389 221.341 41.6838 219.783 41.6838C218.809 41.6838 217.991 41.9662 217.329 42.5311C216.667 43.0764 216.16 43.8263 215.81 44.7808C215.478 45.7157 215.313 46.7772 215.313 47.9654C215.313 49.1341 215.478 50.1956 215.81 51.15C216.141 52.1044 216.637 52.8641 217.3 53.4289C217.962 53.9743 218.79 54.247 219.783 54.247ZM228.345 56L234.772 45.3943L228.432 35.5483H231.529L236.876 44.2256H236.321L241.668 35.5483H244.735L238.337 45.4235L244.56 56H241.521L236.379 46.6798H236.818L231.383 56H228.345Z" fill="#020618"/>
</g>
</g>
<defs>
<filter id="filter0_i_386_47917" x="0" y="0" width="1446" height="796" filterUnits="userSpaceOnUse" color-interpolation-filters="sRGB">
<feFlood flood-opacity="0" result="BackgroundImageFix"/>
<feBlend mode="normal" in="SourceGraphic" in2="BackgroundImageFix" result="shape"/>
<feColorMatrix in="SourceAlpha" type="matrix" values="0 0 0 0 0 0 0 0 0 0 0 0 0 0 0 0 0 0 127 0" result="hardAlpha"/>
<feOffset dx="6" dy="6"/>
<feGaussianBlur stdDeviation="12"/>
<feComposite in2="hardAlpha" operator="arithmetic" k2="-1" k3="1"/>
<feColorMatrix type="matrix" values="0 0 0 0 0 0 0 0 0 0 0 0 0 0 0 0 0 0 0.04 0"/>
<feBlend mode="normal" in2="shape" result="effect1_innerShadow_386_47917"/>
</filter>
<filter id="filter1_f_386_47917" x="317" y="381" width="1242" height="1098" filterUnits="userSpaceOnUse" color-interpolation-filters="sRGB">
<feFlood flood-opacity="0" result="BackgroundImageFix"/>
<feBlend mode="normal" in="SourceGraphic" in2="BackgroundImageFix" result="shape"/>
<feGaussianBlur stdDeviation="175" result="effect1_foregroundBlur_386_47917"/>
</filter>
<filter id="filter2_f_386_47917" x="169.8" y="-350.2" width="1857.4" height="1660.4" filterUnits="userSpaceOnUse" color-interpolation-filters="sRGB">
<feFlood flood-opacity="0" result="BackgroundImageFix"/>
<feBlend mode="normal" in="SourceGraphic" in2="BackgroundImageFix" result="shape"/>
<feGaussianBlur stdDeviation="179.1" result="effect1_foregroundBlur_386_47917"/>
</filter>
<linearGradient id="paint0_linear_386_47917" x1="528" y1="365.443" x2="1740.52" y2="921.224" gradientUnits="userSpaceOnUse">
<stop stop-color="#FDE1F2"/>
<stop offset="1" stop-color="#B793FA"/>
</linearGradient>
<linearGradient id="paint1_linear_386_47917" x1="415.393" y1="729.297" x2="1752.27" y2="871.977" gradientUnits="userSpaceOnUse">
<stop stop-color="white" stop-opacity="0.7"/>
<stop offset="1" stop-color="white" stop-opacity="0"/>
</linearGradient>
<linearGradient id="paint2_linear_386_47917" x1="415.393" y1="729.297" x2="1752.27" y2="871.977" gradientUnits="userSpaceOnUse">
<stop stop-color="white" stop-opacity="0.7"/>
<stop offset="1" stop-color="white" stop-opacity="0"/>
</linearGradient>
<linearGradient id="paint3_linear_386_47917" x1="192.284" y1="541.321" x2="1598.49" y2="691.469" gradientUnits="userSpaceOnUse">
<stop stop-color="white" stop-opacity="0.7"/>
<stop offset="1" stop-color="white" stop-opacity="0"/>
</linearGradient>
<linearGradient id="paint4_linear_386_47917" x1="192.284" y1="541.321" x2="1598.49" y2="691.469" gradientUnits="userSpaceOnUse">
<stop stop-color="white" stop-opacity="0.7"/>
<stop offset="1" stop-color="white" stop-opacity="0"/>
</linearGradient>
<clipPath id="clip0_386_47917">
<rect width="1440" height="790" rx="32" fill="white"/>
</clipPath>
</defs>
</svg>
