<svg width="614" height="296" viewBox="0 0 614 296" fill="none" xmlns="http://www.w3.org/2000/svg">
<g clip-path="url(#clip0_431_39157)">
<rect width="614" height="296" rx="20" fill="#F8FAFC"/>
<g opacity="0.68" filter="url(#filter0_f_431_39157)">
<path d="M465.018 -33.1548C459.709 -37.0027 452.537 -30.0918 456.252 -24.689C499.011 37.5011 507.132 71.4242 462.455 139.474C458.779 145.073 466.852 152.919 472.263 148.972C537.348 101.495 566.183 101.269 631.94 147.794C637.407 151.663 644.92 144.041 640.973 138.63C593.495 73.5453 593.27 44.7107 639.795 -21.0463C643.663 -26.5139 636.042 -34.0262 630.631 -30.0791C563.62 18.803 535.037 17.5951 465.018 -33.1548Z" fill="url(#paint0_linear_431_39157)"/>
</g>
</g>
<rect x="0.25" y="0.25" width="613.5" height="295.5" rx="19.75" stroke="#E2E8F0" stroke-width="0.5"/>
<defs>
<filter id="filter0_f_431_39157" x="378.026" y="-111.471" width="341.249" height="338.711" filterUnits="userSpaceOnUse" color-interpolation-filters="sRGB">
<feFlood flood-opacity="0" result="BackgroundImageFix"/>
<feBlend mode="normal" in="SourceGraphic" in2="BackgroundImageFix" result="shape"/>
<feGaussianBlur stdDeviation="38.6" result="effect1_foregroundBlur_431_39157"/>
</filter>
<linearGradient id="paint0_linear_431_39157" x1="668.486" y1="-59.318" x2="435.943" y2="171.537" gradientUnits="userSpaceOnUse">
<stop stop-color="#DF4300"/>
<stop offset="1" stop-color="#FBAF8D"/>
</linearGradient>
<clipPath id="clip0_431_39157">
<rect width="614" height="296" rx="20" fill="white"/>
</clipPath>
</defs>
</svg>
