<svg width="614" height="294" viewBox="0 0 614 294" fill="none" xmlns="http://www.w3.org/2000/svg">
<g clip-path="url(#clip0_431_39118)">
<rect width="614" height="294" rx="20" fill="#F8FAFC"/>
<g opacity="0.6" filter="url(#filter0_f_431_39118)">
<path d="M694.298 78.675C694.311 77.438 693.984 76.2206 693.352 75.1543C692.719 74.0879 691.806 73.213 690.711 72.6238L600.485 24.7705L702.259 -54.0472C703.149 -54.7223 703.851 -55.6099 704.302 -56.6276C704.753 -57.6453 704.936 -58.76 704.836 -59.8675C704.762 -60.9761 704.408 -62.0486 703.809 -62.9868C703.209 -63.925 702.381 -64.6989 701.402 -65.2376L586.638 -129.361C585.227 -130.169 583.57 -130.443 581.972 -130.132C580.375 -129.822 578.945 -128.947 577.946 -127.671L449.298 34.799C448.737 35.5467 448.34 36.4038 448.134 37.3142C447.928 38.2246 447.918 39.168 448.104 40.0828C448.289 41.0529 448.687 41.9706 449.271 42.7701C449.855 43.5695 450.609 44.231 451.481 44.7069L532.818 90.1529L440.84 193.487C440.153 194.235 439.646 195.128 439.358 196.099C439.069 197.07 439.006 198.093 439.173 199.092C439.341 200.09 439.734 201.038 440.324 201.865C440.914 202.691 441.684 203.373 442.578 203.861C443.546 204.406 444.634 204.707 445.746 204.737C446.858 204.766 447.961 204.525 448.956 204.032L690.605 84.3479C691.672 83.8129 692.577 83.0055 693.226 82.0086C693.875 81.0116 694.245 79.8611 694.298 78.675Z" fill="url(#paint0_linear_431_39118)"/>
</g>
</g>
<rect x="0.25" y="0.25" width="613.5" height="293.5" rx="19.75" stroke="#E2E8F0" stroke-width="0.5"/>
<defs>
<filter id="filter0_f_431_39118" x="351.882" y="-217.457" width="440.181" height="509.397" filterUnits="userSpaceOnUse" color-interpolation-filters="sRGB">
<feFlood flood-opacity="0" result="BackgroundImageFix"/>
<feBlend mode="normal" in="SourceGraphic" in2="BackgroundImageFix" result="shape"/>
<feGaussianBlur stdDeviation="43.6" result="effect1_foregroundBlur_431_39118"/>
</filter>
<linearGradient id="paint0_linear_431_39118" x1="583.598" y1="-180.458" x2="540.998" y2="274.216" gradientUnits="userSpaceOnUse">
<stop stop-color="#B69AF3"/>
<stop offset="1" stop-color="#817FF0"/>
</linearGradient>
<clipPath id="clip0_431_39118">
<rect width="614" height="294" rx="20" fill="white"/>
</clipPath>
</defs>
</svg>
